<svg width="25" height="25" viewBox="0 0 25 25" fill="none" xmlns="http://www.w3.org/2000/svg">
<path fill-rule="evenodd" clip-rule="evenodd" d="M4 16.0002L5.90989 14.0903C7.25553 12.7447 7.92836 12.0719 8.6572 12.0104C9.02413 11.9794 9.39249 12.0503 9.72167 12.2153C10.3755 12.5431 10.7504 13.4177 11.5 15.1669L11.5534 15.2915C11.8795 16.0524 12.0425 16.4328 12.311 16.599C12.5197 16.7281 12.7685 16.776 13.0102 16.7336C13.3212 16.679 13.6138 16.3864 14.1992 15.801L14.3123 15.6879C15.0336 14.9666 15.3943 14.6059 15.8032 14.4539C16.2527 14.2869 16.7473 14.2869 17.1968 14.4539C17.6057 14.6059 17.9664 14.9666 18.6877 15.6879L19.4393 16.4396C19.9762 16.9764 20.6641 17.3272 21.4032 17.4507C21.2778 18.778 20.9898 19.667 20.3284 20.3283C19.1569 21.4999 17.2712 21.4999 13.5 21.4999H11.5C7.72876 21.4999 5.84315 21.4999 4.67157 20.3283C3.5 19.1568 3.5 17.2712 3.5 13.4999V11.4999C3.5 8.66057 3.5 6.8901 4 5.68848V16.0002Z" fill="#0169BF"/>
<path d="M12.5 3.5H11.5C7.72876 3.5 5.84315 3.5 4.67157 4.67157C3.5 5.84315 3.5 7.72876 3.5 11.5V13.5C3.5 17.2712 3.5 19.1569 4.67157 20.3284C5.84315 21.5 7.72876 21.5 11.5 21.5H13.5C17.2712 21.5 19.1569 21.5 20.3284 20.3284C21.5 19.1569 21.5 17.2712 21.5 13.5V12.5" stroke="#0169BF" stroke-width="2"/>
<path d="M21.5 3.5V2.5H22.5V3.5H21.5ZM17.1247 8.28087C16.6934 8.62588 16.0641 8.55596 15.7191 8.12469C15.3741 7.69343 15.444 7.06414 15.8753 6.71913L17.1247 8.28087ZM20.5 8.5V3.5H22.5V8.5H20.5ZM21.5 4.5H16.5V2.5H21.5V4.5ZM22.1247 4.28087L17.1247 8.28087L15.8753 6.71913L20.8753 2.71913L22.1247 4.28087Z" fill="#0169BF"/>
</svg>
