<svg width="24" height="24" viewBox="0 0 24 24" fill="none" xmlns="http://www.w3.org/2000/svg">
<path d="M0 4C0 1.79086 1.79086 0 4 0H20C22.2091 0 24 1.79086 24 4V20C24 22.2091 22.2091 24 20 24H4C1.79086 24 0 22.2091 0 20V4Z" fill="#0169BF"/>
<path d="M4 12C4 7.58172 7.58172 4 12 4V4C16.4183 4 20 7.58172 20 12V12.4706C20 16.629 16.629 20 12.4706 20H12C7.58172 20 4 16.4183 4 12V12Z" stroke="#FAFAFA" stroke-width="2"/>
<path d="M9 12L15 12" stroke="#FAFAFA" stroke-width="2" stroke-linecap="round" stroke-linejoin="round"/>
<path d="M12 9L12 15" stroke="#FAFAFA" stroke-width="2" stroke-linecap="round" stroke-linejoin="round"/>
</svg>
