<svg width="25" height="24" viewBox="0 0 25 24" fill="none" xmlns="http://www.w3.org/2000/svg">
<path d="M0.5 4C0.5 1.79086 2.29086 0 4.5 0H20.5C22.7091 0 24.5 1.79086 24.5 4V20C24.5 22.2091 22.7091 24 20.5 24H4.5C2.29086 24 0.5 22.2091 0.5 20V4Z" fill="#00D1FF" fill-opacity="0.17"/>
<path fill-rule="evenodd" clip-rule="evenodd" d="M17.704 10.7957L19.5 8.9997C20.0453 8.45445 20.3179 8.18182 20.4636 7.88773C20.7409 7.32818 20.7409 6.67122 20.4636 6.11167C20.3179 5.81757 20.0453 5.54495 19.5 4.9997C18.9548 4.45445 18.6821 4.18182 18.388 4.03609C17.8285 3.7588 17.1715 3.7588 16.612 4.03609C16.3179 4.18182 16.0453 4.45445 15.5 4.9997L13.6814 6.81835C14.6452 8.46895 16.0314 9.84451 17.704 10.7957ZM12.2269 8.27281L5.3564 15.1433C4.93134 15.5684 4.71881 15.7809 4.57907 16.042C4.43934 16.3031 4.38039 16.5978 4.2625 17.1873L3.6471 20.2643C3.58058 20.5969 3.54732 20.7632 3.64193 20.8578C3.73654 20.9524 3.90284 20.9191 4.23545 20.8526L7.31243 20.2372C7.90189 20.1193 8.19661 20.0604 8.45771 19.9206C8.71881 19.7809 8.93134 19.5684 9.3564 19.1433L16.2458 12.2539C14.6241 11.2383 13.2524 9.87597 12.2269 8.27281Z" fill="#0169BF"/>
</svg>
